# xmcd
#
# Track frame offsets:
#	150
#	11947
#	32111
#	47375
#	57599
#	71981
#	96040
#	110110
#	122150
#	146156
#	172532
#	203423
#
# Disc length: 3067 seconds
#
# Revision: 1
# Processed by: cddbd v1.5.2PL0 Copyright (c) Steve Scherf et al.
# Submitted via: audiograbber 1.83.01
#
DISCID=aa0bf90c
DTITLE=Varius - regélõ dalok versek mesék
DYEAR=1900
DGENRE=
TTITLE0=Én kis kertet leltem
TTITLE1=Kiskakas gyémánt félkrajcárja
TTITLE2=Fehér liliomszál
TTITLE3=A szamárrá változott barát
TTITLE4=Hopp juliska
TTITLE5=A róka a farkas a lakodalomban
TTITLE6=Badacsonyi szõlõhegyen
TTITLE7=Pinty és Ponty
TTITLE8=Regélõ Olvadás
TTITLE9=A tündér
TTITLE10=Sej elaludtam
TTITLE11=Ugrótáncot jókedvembõl
EXTD=
EXTT0=
EXTT1=
EXTT2=
EXTT3=
EXTT4=
EXTT5=
EXTT6=
EXTT7=
EXTT8=
EXTT9=
EXTT10=
EXTT11=
PLAYORDER=
